<svg height="8.4666mm" style="shape-rendering:geometricPrecision; text-rendering:geometricPrecision; image-rendering:optimizeQuality; fill-rule:evenodd; clip-rule:evenodd" version="1.1" viewBox="0 0 846.66 846.66" width="8.4666mm" xml:space="preserve" xmlns="http://www.w3.org/2000/svg" xmlns:xlink="http://www.w3.org/1999/xlink"><defs><style type="text/css">
   <![CDATA[
    .fil0 {fill:black;fill-rule:nonzero}
   ]]>
  </style></defs><g id="Layer_x0020_1"><path class="fil0" d="M284.37 340.37l-92.28 124.39 179.27 152.27 33.29 -11.93 -56.34 -59.12c-18.82,-19.79 11.26,-48.42 30.09,-28.63l69.01 72.43 23.99 -8.6 -44.82 -57.56c-16.77,-21.47 15.92,-47.01 32.69,-25.53l53.23 68.36 89.24 -31.98 -154.5 -123.77 -54.8 30.77c-2.73,1.73 -5.9,2.84 -9.34,3.14l-70.59 6.19c-13.09,1.1 -24.05,-10.07 -22.44,-23.26l10.28 -82.26 -15.98 -4.91zm40.46 -31.01l208.36 -29.12 171.82 -91.88c9.62,-5.92 22.25,-3.08 28.37,6.47l102.81 159.15c6.23,9.98 3.35,22.94 -6.81,29.02l-160.78 96 -4.18 63.76c-0.57,9.04 -6.84,16.37 -15.1,18.7 -91.35,32.74 -182.7,65.48 -274.06,98.23 -7.01,3.01 -15.42,2.04 -21.64,-3.22 -115.34,-97.97 -219.51,-185.24 -338.35,-277.3 -8.88,-6.85 -10.67,-19.47 -4.19,-28.51l96.5 -139.26c6.29,-9.11 18.56,-11.63 27.89,-5.92l149.61 91.68 39.75 12.2zm302.55 163.03l-97.95 -149.68 -187.59 26.22 -7.27 58.15 40.52 -3.56 64.01 -35.94c7.95,-4.45 17.57,-3.12 24,2.62l162.45 130.13 1.83 -27.94zm162.23 -113.99l-80.8 -125.04 -139.37 74.52 85.63 130.86 134.54 -80.34zm-629.82 80.22l86.47 -116.54 -115.72 -70.93 -74.32 107.23 103.57 80.24z"></path></g></svg>